<?xml version="1.0" encoding="UTF-8"?>
<svg width="16px" height="16px" viewBox="0 0 16 16" version="1.1" xmlns="http://www.w3.org/2000/svg" xmlns:xlink="http://www.w3.org/1999/xlink">
    <title>icon/数据备份</title>
    <defs>
        <filter id="filter-1">
            <feColorMatrix in="SourceGraphic" type="matrix" values="0 0 0 0 1.000000 0 0 0 0 1.000000 0 0 0 0 1.000000 0 0 0 1.000000 0"></feColorMatrix>
        </filter>
        <filter id="filter-2">
            <feColorMatrix in="SourceGraphic" type="matrix" values="0 0 0 0 0.341176 0 0 0 0 0.196078 0 0 0 0 0.803922 0 0 0 1.000000 0"></feColorMatrix>
        </filter>
    </defs>
    <g id="深色部分" stroke="none" stroke-width="1" fill="none" fill-rule="evenodd">
        <g id="动态研究-首页" transform="translate(-260.000000, -144.000000)">
            <g id="icon/数据备份" transform="translate(260.000000, 144.000000)" filter="url(#filter-1)">
                <g filter="url(#filter-2)" id="编组">
                    <g>
                        <path d="M6.88385045,7.99975826 L1.44889224,5.58233582 C1.15791544,5.42618652 0.801824955,5.42618652 0.510848159,5.58233582 C0.195453729,5.75776281 0.00214746516,6.07777248 5.55418847e-05,6.42477091 L5.55418847e-05,12.593632 C-0.00395694316,12.9618359 0.209697348,13.303051 0.55561382,13.4726947 L6.00074604,15.8939727 C6.13707783,15.9633724 6.28968804,15.9980722 6.44433305,16 C6.61525648,15.9942167 6.78211031,15.9460225 6.92861611,15.8612006 C7.23994093,15.6819181 7.43121239,15.3638362 7.435282,15.0187655 L7.435282,8.84219336 C7.42103838,8.48748384 7.21145369,8.16747417 6.88385045,7.99975826 Z M15.0108527,3.98807078 C15.2367158,3.50805627 15.0088179,2.9451477 14.502152,2.73116533 L8.77214742,0.163376898 C8.28230409,-0.0544589659 7.71554064,-0.0544589659 7.22569731,0.163376898 L1.4977275,2.73116533 C1.26982959,2.82755378 1.08873215,2.99912523 0.98902681,3.2131076 C0.763163702,3.69312211 0.991061613,4.25603068 1.4977275,4.47001305 L7.52481332,7.15732317 C7.67131912,7.23057839 7.83410334,7.27106155 8.00095717,7.27491708 C8.16577619,7.26913378 8.32856041,7.22865063 8.47710102,7.15732317 L14.5041868,4.47001305 C14.7280151,4.37555237 14.9091126,4.20205315 15.0108527,3.98807078 Z M15.9997669,12.593632 L15.9997669,6.42862645 C15.9977321,6.08162801 15.802391,5.76354611 15.4890314,5.58619136 C15.2061938,5.42811429 14.8582425,5.42040322 14.5693005,5.5649859 L9.09771586,7.99975826 C8.77418222,8.17132971 8.57273675,8.49133938 8.56459754,8.84219336 L8.56459754,15.0361155 C8.56866714,15.3811861 8.7599386,15.699268 9.07126343,15.8785505 C9.21980403,15.9575891 9.38665786,16 9.55554649,16 C9.7101915,16 9.86280171,15.9653002 9.99913349,15.8939727 L15.4666485,13.4726947 C15.802391,13.2972677 16.0079061,12.9579804 15.9997669,12.593632 L15.9997669,12.593632 Z M11.9566138,13.0177412 L11.7022634,13.3820896 L11.2240848,13.1661794 L10.7438713,13.8524652 L10.489521,13.7367991 L10.9676996,13.0524411 L10.489521,12.8365309 L10.7438713,12.4721826 L11.22205,12.6880927 L11.7002286,12.0037347 L11.954579,12.1194008 L11.4764003,12.8037588 L11.9566138,13.0177412 L11.9566138,13.0177412 Z M11.9566138,9.77716137 L11.2810592,10.1087377 L11.2810592,10.7468292 L10.9208991,10.924184 L10.9208991,10.2860924 L10.2453446,10.6176687 L10.2453446,10.2783813 L10.9208991,9.94680505 L10.9208991,9.30871348 L11.2810592,9.13135872 L11.2810592,9.76945029 L11.9566138,9.43787401 L11.9566138,9.77716137 Z M14.4004119,12.0114457 L13.0431984,12.693876 L13.0431984,12.3545886 L14.4004119,11.6702306 L14.4004119,12.0114457 L14.4004119,12.0114457 Z M14.4004119,11.2037105 L13.0431984,11.8880685 L13.0431984,11.5468534 L14.4004119,10.8624954 L14.4004119,11.2037105 L14.4004119,11.2037105 Z M14.4004119,8.6397776 L13.0431984,9.32220786 L13.0431984,8.9829205 L14.4004119,8.29856247 L14.4004119,8.6397776 L14.4004119,8.6397776 Z" id="形状" fill="#000000" fill-rule="nonzero"></path>
                    </g>
                </g>
            </g>
        </g>
    </g>
</svg>