<?xml version="1.0" encoding="UTF-8"?>
<svg width="13px" height="15px" viewBox="0 0 13 15" version="1.1" xmlns="http://www.w3.org/2000/svg" xmlns:xlink="http://www.w3.org/1999/xlink">
    <title>icon/保存备份 5</title>
    <defs>
        <filter id="filter-1">
            <feColorMatrix in="SourceGraphic" type="matrix" values="0 0 0 0 1.000000 0 0 0 0 1.000000 0 0 0 0 1.000000 0 0 0 1.000000 0"></feColorMatrix>
        </filter>
    </defs>
    <g id="深色部分" stroke="none" stroke-width="1" fill="none" fill-rule="evenodd">
        <g id="动态研究-首页" transform="translate(-1160.000000, -411.000000)">
            <g id="编组" transform="translate(1159.000000, 411.719030)" filter="url(#filter-1)">
                <g transform="translate(1.000000, 0.000000)">
                    <path d="M11.953125,1.44734375 C11.9523437,0.92609375 11.681875,0.4115625 11.2095312,0.1671875 C10.9667187,0.0421875 10.7095312,0 10.44125,0 L1.456875,0 C0.96546875,0 0.53921875,0.22890625 0.25625,0.62765625 C0.0771875,0.87921875 0.015625,1.1875 0.015625,1.49015625 L0.015625,11.121875 C0.015625,11.3948438 0.01375,11.66875 0.015625,11.9409375 C0.0196875,12.5659375 0.4234375,13.125 1.02375,13.3096875 C1.240625,13.3764063 1.45953125,13.3665625 1.6815625,13.36375 L3.71046875,13.3365625 L5.8215625,13.3084375 L6.17203125,13.30375 C6.416875,13.300625 6.651875,13.0907813 6.64078125,12.835 C6.6296875,12.5840625 6.435,12.363125 6.17203125,12.36625 L4.5265625,12.3890625 L1.9615625,12.4232813 C1.76625,12.4259375 1.56125,12.4445313 1.36421875,12.4289063 C1.32275932,12.4204757 1.28189188,12.4093585 1.241875,12.395625 C1.21115869,12.3803797 1.1813203,12.3634261 1.1525,12.3448438 L1.14296875,12.3382813 C1.12734375,12.3245313 1.11171875,12.31125 1.09609375,12.2965625 C1.08046875,12.281875 1.06484375,12.2640625 1.05046875,12.2473438 C1.02763823,12.2132624 1.00707305,12.177717 0.98890625,12.1409375 C0.974848036,12.1000426 0.963418479,12.0582908 0.9546875,12.0159375 C0.94703125,11.9089063 0.95171875,11.7998438 0.95171875,11.6932813 L0.95171875,2.67390625 C0.95171875,2.25859375 0.95015625,1.8434375 0.95171875,1.42828125 C0.95171875,1.40286458 0.95265625,1.37739583 0.95453125,1.351875 C0.963254289,1.3092479 0.974736791,1.26723238 0.98890625,1.22609375 C1.00599529,1.19150747 1.02519831,1.15800654 1.04640625,1.12578125 C1.04677071,1.12517213 1.04718905,1.12459691 1.04765625,1.1240625 C1.06328125,1.10625 1.07890625,1.0875 1.09609375,1.07046875 C1.110625,1.05609375 1.1259375,1.0428125 1.14109375,1.02921875 L1.14328125,1.0278125 C1.17488366,1.00706106 1.20770308,0.98822511 1.2415625,0.97140625 C1.2795969,0.958664856 1.31836521,0.94822924 1.35765625,0.94015625 C1.45140625,0.93390625 1.54609375,0.9375 1.63890625,0.9375 L9.45765625,0.9375 C9.81796875,0.9375 10.1784375,0.93484375 10.53875,0.9375 C10.561875,0.9375 10.585625,0.9384375 10.6079687,0.93984375 C10.6477471,0.948329736 10.6869836,0.959182366 10.7254687,0.97234375 C10.756151,0.987595716 10.7859862,1.00449538 10.8148437,1.02296875 L10.824375,1.0296875 C10.84,1.04328125 10.855625,1.05671875 10.87125,1.07125 C10.886875,1.08578125 10.9025,1.10390625 10.916875,1.12046875 C10.939639,1.15459147 10.9602016,1.19013248 10.9784375,1.226875 C10.9923771,1.26747547 11.0037537,1.30891116 11.0125,1.3509375 C11.0173437,1.4253125 11.0154687,1.5 11.0154687,1.57453125 L11.0154687,7.39328125 C11.0154687,7.67453125 11.0098437,7.95578125 11.0154687,8.23796875 L11.0154687,8.24984375 C11.0154687,8.49484375 11.2309375,8.72953125 11.4842187,8.71859375 C11.7375,8.70765625 11.9529687,8.5128125 11.9529687,8.24984375 L11.9529687,2.713125 C11.953125,2.29114583 11.953125,1.86921875 11.953125,1.44734375 Z M1.06526202,12.264375 C1.10274279,12.2978013 1.13661345,12.3338305 1.16649279,12.3720571 C1.14603125,12.3729397 1.09972356,12.3164508 1.06526202,12.264375 L1.06526202,12.264375 Z M1.1152339,1.13549159 C1.1152339,1.12579928 1.16574445,1.0848762 1.21816106,1.04610697 C1.18488846,1.0797425 1.14882427,1.10967578 1.11046875,1.13549159 L1.1152339,1.13549159 Z M10.9974303,1.19144053 C10.9602437,1.15781182 10.9263926,1.12180333 10.8961995,1.08375828 C10.9005072,1.08287564 10.9468149,1.14024733 10.9845072,1.19144053 L10.9974303,1.19144053 Z" id="形状" fill="#0071C3" fill-rule="nonzero"></path>
                    <path d="M8.44765625,2.57078125 L3.7428125,2.57078125 C3.5240625,2.57078125 3.3053125,2.56609375 3.0865625,2.57078125 L3.078125,2.57078125 C2.833125,2.57078125 2.5984375,2.78625 2.609375,3.03953125 C2.6203125,3.2928125 2.81515625,3.50828125 3.078125,3.50828125 L7.7825,3.50828125 C8.00125,3.50828125 8.22,3.513125 8.43875,3.50828125 L8.44796875,3.50828125 C8.69296875,3.50828125 8.92765625,3.2928125 8.91671875,3.03953125 C8.90578125,2.78625 8.7103125,2.57078125 8.44765625,2.57078125 L8.44765625,2.57078125 Z M8.44765625,5.25296875 L3.7428125,5.25296875 C3.5240625,5.25296875 3.3053125,5.248125 3.0865625,5.25296875 L3.078125,5.25296875 C2.833125,5.25296875 2.5984375,5.4684375 2.609375,5.72171875 C2.6203125,5.975 2.81515625,6.19046875 3.078125,6.19046875 L7.7825,6.19046875 C8.00125,6.19046875 8.22,6.1953125 8.43875,6.19046875 L8.44796875,6.19046875 C8.69296875,6.19046875 8.92765625,5.97515625 8.91671875,5.72171875 C8.90578125,5.46828125 8.7103125,5.25296875 8.44765625,5.25296875 Z M6.574375,7.953125 L3.078125,7.953125 C2.833125,7.953125 2.5984375,8.16859375 2.609375,8.421875 C2.6203125,8.67515625 2.81515625,8.890625 3.078125,8.890625 L6.574375,8.890625 C6.819375,8.890625 7.0540625,8.67515625 7.043125,8.421875 C7.0321875,8.16859375 6.83703125,7.953125 6.574375,7.953125 Z" id="形状" fill="#0071C3" fill-rule="nonzero"></path>
                    <path d="M11.9446875,13.171875 L11.0904688,12.34125 C11.3209375,12.040625 11.4810938,11.6875 11.5376563,11.3129687 C11.5605749,11.1757553 11.5734735,11.0370554 11.57625,10.8979687 L11.57625,10.874375 C11.5690625,10.405625 11.4285938,9.926875 11.154375,9.54421875 C10.8628451,9.13194479 10.4526683,8.81823528 9.9784375,8.64484375 C9.07703125,8.3115625 7.9784375,8.6078125 7.3690625,9.35234375 C7.03875,9.75640625 6.8459375,10.2245312 6.805,10.7459375 C6.7678125,11.22 6.8921875,11.7175 7.13734375,12.1240625 C7.37609375,12.52 7.738125,12.8620312 8.16125,13.0529687 C8.6465625,13.2717187 9.1621875,13.3367187 9.68609375,13.2332812 C9.93321686,13.1835162 10.1701828,13.0924486 10.3870313,12.9639062 L11.139375,13.6954687 L11.2821875,13.8342187 C11.4579688,14.0051562 11.7717188,14.0217187 11.944375,13.8342187 C12.114375,13.6492187 12.1323438,13.3542187 11.9446875,13.171875 L11.9446875,13.171875 Z M10.3509375,11.8572236 C10.408506,11.8009766 10.4585245,11.7509031 10.4585245,11.7495312 C10.4613557,11.7694235 10.4066185,11.8153813 10.3547125,11.8565376 L10.3509375,11.8572236 Z M10.1470673,9.82409856 C10.0908204,9.76697481 10.0407469,9.71640625 10.039375,9.71640625 C10.0599531,9.71640625 10.105911,9.77165709 10.1470673,9.82409856 Z M8.11394231,10.021875 C8.05588211,10.0784825 8.00625,10.128877 8.00625,10.1295673 C8.03148847,10.0884924 8.06818278,10.0517981 8.11394231,10.021875 L8.11394231,10.021875 Z M8.3125,12.0615625 L8.42019231,12.1692548 C8.39741124,12.1683184 8.35115878,12.1130675 8.3125,12.0615625 Z M9.384375,12.3395312 C9.25410875,12.3521871 9.1229225,12.3521871 8.99265625,12.3395312 C8.86660019,12.3178684 8.74294658,12.2840115 8.6234375,12.2384375 C8.53415042,12.1974447 8.4481197,12.1497021 8.36609375,12.095625 C8.343125,12.08 8.320625,12.064375 8.29796875,12.04875 L8.29796875,12.0479687 C8.25109375,12.0090625 8.205625,11.968125 8.1625,11.9248437 C8.121875,11.8842187 8.0828125,11.8415625 8.0459375,11.7973437 L8.03984375,11.7898437 C8.025625,11.7696875 8.01078125,11.7496875 7.99703125,11.7292187 C7.94060307,11.6447156 7.89091818,11.5558993 7.8484375,11.4635937 C7.80250808,11.3439029 7.76828564,11.2200427 7.74625,11.09375 C7.73359417,10.9634838 7.73359417,10.8322975 7.74625,10.7020312 C7.76793398,10.5759965 7.80173665,10.4523499 7.8471875,10.3328125 C7.8882689,10.24359 7.93606239,10.157614 7.99015625,10.075625 C8.00578125,10.0525 8.02140625,10.03 8.03703125,10.0075 L8.03703125,10.0067187 C8.07588542,9.95973958 8.11692708,9.91458333 8.16015625,9.87125 C8.2009375,9.830625 8.2434375,9.7915625 8.28765625,9.7546875 L8.29515625,9.74859375 C8.31546875,9.734375 8.3353125,9.71953125 8.3559375,9.70578125 C8.44043693,9.64934699 8.52925372,9.59966183 8.6215625,9.5571875 C8.74110618,9.51175608 8.86475091,9.47795392 8.99078125,9.45625 C9.1210475,9.44359417 9.25223375,9.44359417 9.3825,9.45625 C9.50853034,9.47795392 9.63217507,9.51175608 9.75171875,9.5571875 C9.84094124,9.5982689 9.9269173,9.64606239 10.0089063,9.70015625 C10.0320313,9.71578125 10.054375,9.73140625 10.0770313,9.74703125 C10.1241146,9.78598958 10.1692188,9.82703125 10.2123438,9.87015625 C10.2530729,9.91088542 10.2919792,9.9534375 10.3290625,9.9978125 L10.3351563,10.0053125 C10.349375,10.0254687 10.3640625,10.0453125 10.3779688,10.0659375 C10.4343212,10.1504593 10.4839528,10.2392737 10.5264063,10.3315625 C10.5728008,10.4517623 10.6073399,10.5762077 10.6295313,10.703125 C10.6359375,10.7679687 10.6392188,10.8328125 10.6396875,10.898125 C10.6401563,10.9634375 10.6359375,11.0284375 10.6295313,11.0932812 C10.6078696,11.2195918 10.5740133,11.3435047 10.5284375,11.4632812 C10.487349,11.5524698 10.4396102,11.6384415 10.385625,11.7204687 C10.37,11.7435937 10.354375,11.7659375 10.33875,11.7885937 C10.2997917,11.8355729 10.25875,11.8806771 10.215625,11.9239062 C10.1748958,11.9647396 10.1323958,12.0036458 10.088125,12.040625 L10.080625,12.0467187 C10.0603125,12.0609375 10.0404688,12.0757812 10.02,12.0895312 C9.93542542,12.1458427 9.84661844,12.1955224 9.754375,12.238125 C9.63439665,12.2838125 9.51027561,12.3177731 9.38375,12.3395312 L9.384375,12.3395312 Z" id="形状" fill="#FD9A16" fill-rule="nonzero"></path>
                </g>
            </g>
        </g>
    </g>
</svg>