<?xml version="1.0" encoding="UTF-8"?>
<svg width="16px" height="16px" viewBox="0 0 16 16" version="1.1" xmlns="http://www.w3.org/2000/svg" xmlns:xlink="http://www.w3.org/1999/xlink">
    <title>icon/user备份 14</title>
    <defs>
        <filter id="filter-1">
            <feColorMatrix in="SourceGraphic" type="matrix" values="0 0 0 0 1.000000 0 0 0 0 1.000000 0 0 0 0 1.000000 0 0 0 1.000000 0"></feColorMatrix>
        </filter>
    </defs>
    <g id="深色部分" stroke="none" stroke-width="1" fill="none" fill-rule="evenodd">
        <g id="动态研究-首页" transform="translate(-308.000000, -336.000000)">
            <g id="编组" transform="translate(308.000000, 336.000000)" filter="url(#filter-1)">
                <g>
                    <path d="M11.8605263,7.55175439 L15.4061404,4.18333333 C16.1140842,3.47536947 16.1140842,2.32755451 15.4061404,1.61959064 L14.521345,0.734795322 C13.8261127,0.0397626133 12.7036095,0.0254946048 11.9909357,0.702631579 L8.52777778,3.99093567 L5.16403509,0.397368421 L5.13654971,0.36871345 C4.9152707,0.145444556 4.61433522,0.019263063 4.29999199,0.0179365016 C3.98564876,0.0166307401 3.68366719,0.140287807 3.46052632,0.361695906 L0.935380117,2.88684211 C0.485110305,3.34046234 0.476051792,4.06954323 0.914912281,4.53421053 L4.22894737,8.0745614 L1.09561404,11.0511696 C0.839433868,11.2946521 0.659958749,11.6076665 0.579239766,11.9517544 L0.0494152047,14.2131579 C-0.0477739677,14.6286949 0.0831483341,15.0645772 0.393218502,15.3577892 C0.70328867,15.6510012 1.14580206,15.7573775 1.55526316,15.6371345 L3.73538012,14.9950292 C4.01103275,14.9135834 4.26351744,14.7681041 4.47222222,14.5704678 L7.56169591,11.6353801 L11.2827485,15.6108187 L11.3102339,15.6394737 C11.5315129,15.8627426 11.8324484,15.9889241 12.1467916,15.9902506 C12.4611349,15.9915564 12.7631164,15.8678993 12.9862573,15.6464912 L15.5114035,13.121345 C15.9616733,12.6677248 15.9707318,11.9386439 15.5318713,11.4739766 L11.8605263,7.55175439 Z M4.4119883,13.0149123 L2.76520468,11.3681287 C2.71353305,11.3176794 2.65282706,11.2774072 2.58625731,11.2494152 L10.7657895,3.47865497 L12.4885965,5.20146199 C12.5143275,5.22719298 12.5464912,5.23947368 12.575731,5.25935673 L4.4119883,13.0149123 L4.4119883,13.0149123 Z M12.7961988,1.5494152 C13.04913,1.30936562 13.4472686,1.31455309 13.6938596,1.56111111 L14.578655,2.44590643 C14.830117,2.69736842 14.830117,3.10438596 14.5669591,3.36695906 L13.3891813,4.48567251 C13.3657895,4.44766082 13.3482456,4.40730994 13.3149123,4.37397661 L11.6131579,2.67222222 L12.7961988,1.5494152 L12.7961988,1.5494152 Z M3.84707602,5.95584795 C3.99327485,5.95350877 4.13947368,5.89795322 4.25116959,5.78625731 L5.12836257,4.90906433 C5.27607414,4.76135277 5.33376207,4.54605847 5.27969589,4.34428072 C5.22562971,4.14250297 5.06802334,3.98489661 4.86624559,3.93083043 C4.66446785,3.87676424 4.44917355,3.93445218 4.30146199,4.08216374 L3.42426901,4.95935673 C3.32714012,5.05911505 3.26921545,5.19053553 3.26111111,5.32953216 L1.76929825,3.73538012 C1.75994152,3.72602339 1.75994152,3.71666667 1.7628655,3.71432749 L4.2880117,1.18859649 C4.29035088,1.18625731 4.3002924,1.18625731 4.31081871,1.19619883 L7.68040936,4.79619883 L5.07748538,7.26929825 L3.84707602,5.95584795 Z M1.2248538,14.5154971 C1.21477617,14.5185504 1.20383515,14.5159492 1.19620996,14.5086871 C1.18858476,14.5014251 1.18545329,14.4906239 1.1880117,14.4804094 L1.71783626,12.2190058 C1.73596491,12.1429825 1.77163743,12.0733918 1.81491228,12.0090643 C1.84371137,12.0782324 1.88561071,12.1411807 1.93830409,12.1944444 L3.55175439,13.8078947 C3.50592333,13.8355524 3.45680797,13.8573596 3.40555556,13.872807 L1.2248538,14.5154971 L1.2248538,14.5154971 Z M12.1593567,14.8201754 C12.1570175,14.8225146 12.147076,14.8225146 12.1365497,14.8125731 L9.84122807,12.3605263 C9.93781299,12.3367703 10.0265132,12.2881868 10.098538,12.2195906 L10.975731,11.3423977 C11.1234426,11.1946861 11.1811305,10.9793918 11.1270643,10.777614 C11.0729981,10.5758363 10.9153918,10.4182299 10.713614,10.3641637 C10.5118363,10.3100976 10.296542,10.3677855 10.1488304,10.5154971 L9.27163743,11.3926901 C9.21156791,11.4543867 9.16601737,11.528706 9.13830409,11.6102339 L8.40906433,10.8307018 L11.0119883,8.35760234 L14.6774854,12.2739766 C14.6862573,12.2833333 14.6862573,12.2926901 14.6839181,12.2950292 L12.1593567,14.8201754 Z" id="形状" fill="#000000" fill-rule="nonzero"></path>
                </g>
            </g>
        </g>
    </g>
</svg>