<?xml version="1.0" encoding="UTF-8"?>
<svg width="14px" height="14px" viewBox="0 0 14 14" version="1.1" xmlns="http://www.w3.org/2000/svg" xmlns:xlink="http://www.w3.org/1999/xlink">
    <title>icon/删除</title>
    <defs>
        <filter id="filter-1">
            <feColorMatrix in="SourceGraphic" type="matrix" values="0 0 0 0 1.000000 0 0 0 0 1.000000 0 0 0 0 1.000000 0 0 0 1.000000 0"></feColorMatrix>
        </filter>
    </defs>
    <g id="深色部分" stroke="none" stroke-width="1" fill="none" fill-rule="evenodd">
        <g id="动态研究-首页" transform="translate(-1401.000000, -65.000000)">
            <g id="右上角按钮2" transform="translate(1352.000000, 56.000000)">
                <g id="编组" transform="translate(49.000000, 9.000000)" filter="url(#filter-1)">
                    <g>
                        <path d="M13.3984375,2.97875977 L0.560546875,2.97875977 C0.254638672,2.97875977 0.0068359375,2.73095703 0.0068359375,2.42504883 C0.0068359375,2.11914062 0.254638672,1.87133789 0.560546875,1.87133789 L13.3984375,1.87133789 C13.7043457,1.87133789 13.9521484,2.11914062 13.9521484,2.42504883 C13.9521484,2.73095703 13.7043457,2.97875977 13.3984375,2.97875977 Z" id="路径" fill="#666666" fill-rule="nonzero"></path>
                        <path d="M11.0263672,13.8000488 L2.83349609,13.8000488 C2.05761719,13.8000488 1.42700195,13.1694336 1.42700195,12.3935547 L1.42700195,2.8984375 C1.42700195,2.5925293 1.67480469,2.34472656 1.98071289,2.34472656 C2.28662109,2.34472656 2.53442383,2.5925293 2.53442383,2.8984375 L2.53442383,12.3952637 C2.53442383,12.5576172 2.67114258,12.6943359 2.83349609,12.6943359 L11.0263672,12.6943359 C11.1887207,12.6943359 11.3237305,12.5576172 11.3237305,12.3952637 L11.3237305,2.8984375 C11.3237305,2.5925293 11.5715332,2.34472656 11.8774414,2.34472656 C12.1833496,2.34472656 12.4311558,2.5925293 12.4311558,2.8984375 L12.4311558,12.3952637 C12.4328613,13.1694336 11.8022461,13.8000488 11.0263672,13.8000488 L11.0263672,13.8000488 Z" id="路径" fill="#666666" fill-rule="nonzero"></path>
                        <path d="M4.82788086,10.6230469 C4.52197266,10.6230469 4.27416992,10.3752441 4.27416992,10.0693359 L4.27416992,5.59350586 C4.27416992,5.28759766 4.52197266,5.03979492 4.82788086,5.03979492 C5.13378906,5.03979492 5.3815918,5.28759766 5.3815918,5.59350586 L5.3815918,10.0693359 C5.3815918,10.3752441 5.13378906,10.6230469 4.82788086,10.6230469 Z M6.92993164,10.6230469 C6.62402344,10.6230469 6.3762207,10.3752441 6.3762207,10.0693359 L6.3762207,5.59350586 C6.3762207,5.28759766 6.62402344,5.03979492 6.92993164,5.03979492 C7.23583984,5.03979492 7.48364258,5.28759766 7.48364258,5.59350586 L7.48364258,10.0693359 C7.48364258,10.3752441 7.23583984,10.6230469 6.92993164,10.6230469 Z M9.03369141,10.6230469 C8.7277832,10.6230469 8.47998047,10.3752441 8.47998047,10.0693359 L8.47998047,5.59350586 C8.47998047,5.28759766 8.7277832,5.03979492 9.03369141,5.03979492 C9.33959961,5.03979492 9.58740234,5.28759766 9.58740234,5.59350586 L9.58740234,10.0693359 C9.58740234,10.3752441 9.33959961,10.6230469 9.03369141,10.6230469 Z M9.50195312,2.7668457 C9.19604492,2.7668457 8.94824219,2.51904297 8.94824219,2.21313477 L8.94824219,1.50219727 C8.94824219,1.28515625 8.7722168,1.10742188 8.5534668,1.10742188 L5.30639648,1.10742188 C5.08935547,1.10742188 4.91162109,1.28344727 4.91162109,1.50219727 L4.91162109,2.21313477 C4.91162109,2.51904297 4.66381836,2.7668457 4.35791016,2.7668457 C4.05200195,2.7668457 3.80419922,2.51904297 3.80419922,2.21313477 L3.80419922,1.50219727 C3.80419922,0.673339844 4.47753906,0 5.30639648,0 L8.55517578,0 C9.3840332,0 10.057373,0.673339844 10.057373,1.50219727 L10.057373,2.21313477 C10.057373,2.51904297 9.80957031,2.7668457 9.50195312,2.7668457 Z" id="形状" fill="#666666" fill-rule="nonzero"></path>
                    </g>
                </g>
            </g>
        </g>
    </g>
</svg>