<?xml version="1.0" encoding="UTF-8"?>
<svg width="14px" height="15px" viewBox="0 0 14 15" version="1.1" xmlns="http://www.w3.org/2000/svg" xmlns:xlink="http://www.w3.org/1999/xlink">
    <title>icon/保存备份 4</title>
    <defs>
        <filter id="filter-1">
            <feColorMatrix in="SourceGraphic" type="matrix" values="0 0 0 0 1.000000 0 0 0 0 1.000000 0 0 0 0 1.000000 0 0 0 1.000000 0"></feColorMatrix>
        </filter>
    </defs>
    <g id="深色部分" stroke="none" stroke-width="1" fill="none" fill-rule="evenodd">
        <g id="动态研究-首页" transform="translate(-1129.000000, -411.000000)">
            <g id="编组" transform="translate(1129.000000, 411.719030)" filter="url(#filter-1)">
                <g>
                    <path d="M7,1.09375 C3.74327734,1.09375 1.09375,3.74327734 1.09375,7 C1.09375,10.2567227 3.74327734,12.90625 7,12.90625 C10.2567227,12.90625 12.90625,10.2567227 12.90625,7 C12.90625,3.74327734 10.2567227,1.09375 7,1.09375 M7,0 C10.8659961,0 14,3.13400391 14,7 C14,10.8659961 10.8659961,14 7,14 C3.13400391,14 0,10.8659961 0,7 C0,3.13400391 3.13400391,0 7,0 Z" id="形状" fill="#707070" fill-rule="nonzero"></path>
                    <path d="M6.59670703,4.48347266 L8.72355859,6.61032422 C8.93553102,6.8241615 8.93477565,7.16911811 8.72186875,7.382025 C8.50896186,7.5949319 8.16400525,7.59568727 7.95016797,7.38371484 L5.82331641,5.25686328 C5.61134398,5.043026 5.61209935,4.69806939 5.82500625,4.4851625 C6.03791314,4.2722556 6.38286975,4.27150023 6.59670703,4.48347266 L6.59670703,4.48347266 Z" id="路径" fill="#707070" fill-rule="nonzero"></path>
                    <path d="M8.72355859,7.38967578 L6.59670703,9.51652734 C6.38286975,9.72849977 6.03791314,9.7277444 5.82500625,9.5148375 C5.61209935,9.30193061 5.61134398,8.956974 5.82331641,8.74313672 L7.95016797,6.61628516 C8.16400525,6.40431273 8.50896186,6.4050681 8.72186875,6.617975 C8.93477565,6.83088189 8.93553102,7.1758385 8.72355859,7.38967578 Z" id="路径" fill="#707070" fill-rule="nonzero"></path>
                </g>
            </g>
        </g>
    </g>
</svg>