<?xml version="1.0" encoding="UTF-8"?>
<svg width="16px" height="10px" viewBox="0 0 16 10" version="1.1" xmlns="http://www.w3.org/2000/svg" xmlns:xlink="http://www.w3.org/1999/xlink">
    <title>icon/数据</title>
    <defs>
        <filter id="filter-1">
            <feColorMatrix in="SourceGraphic" type="matrix" values="0 0 0 0 1.000000 0 0 0 0 1.000000 0 0 0 0 1.000000 0 0 0 1.000000 0"></feColorMatrix>
        </filter>
    </defs>
    <g id="深色部分" stroke="none" stroke-width="1" fill="none" fill-rule="evenodd">
        <g id="动态研究-首页" transform="translate(-260.000000, -107.000000)">
            <g id="icon/数据" transform="translate(260.000000, 104.000000)" filter="url(#filter-1)">
                <g id="编组" transform="translate(0.000000, 3.000000)" fill="#5732CD" fill-rule="nonzero">
                    <path d="M7.67266428,6.87090693 C6.84766453,7.67351003 6.04966478,8.04619364 5.25333169,8.04619363 C3.31999896,8.04619363 2.0013327,6.75448394 2.0013327,4.88196018 C2.0013327,3.13951796 3.36133228,1.94699545 5.25333169,1.94699545 C7.27766438,1.94699545 8.75933059,3.39317696 8.98466387,6.18602762 L8.99266386,6.29139367 C9.13733049,8.40521869 10.3903301,9.7756277 12.1366629,9.97595327 C13.7159957,10.157417 15.3006619,9.29790324 15.7939951,7.86928274 C16.7596614,5.07350524 14.1769956,2.61268772 11.2433298,3.61203915 L11.9043296,5.4494409 C13.2709959,4.98439939 14.3306622,5.99383215 13.8969957,7.24911899 C13.721329,7.75806302 13.0529959,8.1206653 12.3713295,8.04229118 C11.6279964,7.95676256 11.0963299,7.39220869 10.9956632,6.24293829 L10.9889966,6.16163733 C10.7259967,2.31219937 8.39666405,0 5.25333169,0 C2.29999928,0 0,2.01626387 0,4.88196018 C0,7.82668103 2.21166598,9.99351428 5.25333169,9.99351428 C6.62466459,9.99351428 7.91099753,9.39286276 9.08766383,8.24814522 L7.67266428,6.87123213 L7.67266428,6.87090693 Z" id="路径"></path>
                </g>
            </g>
        </g>
    </g>
</svg>