<?xml version="1.0" encoding="UTF-8"?>
<svg width="12px" height="12px" viewBox="0 0 12 12" version="1.1" xmlns="http://www.w3.org/2000/svg" xmlns:xlink="http://www.w3.org/1999/xlink">
    <title>icon/保存</title>
    <defs>
        <filter id="filter-1">
            <feColorMatrix in="SourceGraphic" type="matrix" values="0 0 0 0 1.000000 0 0 0 0 1.000000 0 0 0 0 1.000000 0 0 0 1.000000 0"></feColorMatrix>
        </filter>
    </defs>
    <g id="深色部分" stroke="none" stroke-width="1" fill="none" fill-rule="evenodd">
        <g id="动态研究-首页" transform="translate(-1362.000000, -66.000000)">
            <g id="右上角按钮2" transform="translate(1352.000000, 56.000000)">
                <g id="编组" transform="translate(9.000000, 9.000000)">
                    <g id="编组" transform="translate(1.000000, 1.000000)" filter="url(#filter-1)">
                        <g>
                            <path d="M1.21814779,1.04928385 C1.1440918,1.08889974 1.08889974,1.1440918 1.04928385,1.21814779 C0.995572917,1.31858724 0.9765625,1.41700846 0.9765625,1.74018555 L0.9765625,10.2389811 C0.9765625,10.5621582 0.995572917,10.6605794 1.04928385,10.7610189 C1.08889974,10.8350749 1.1440918,10.8902669 1.21814779,10.9298828 C1.31858724,10.9835937 1.41700846,11.0026042 1.74018555,11.0026042 L10.2389811,11.0026042 C10.5621582,11.0026042 10.6605794,10.9835937 10.7610189,10.9298828 C10.8350749,10.8902669 10.8902669,10.8350749 10.9298828,10.7610189 C10.9835938,10.6605794 11.0026042,10.5621582 11.0026042,10.2389811 L11.0026042,3.46966146 C11.0026042,3.26655273 10.9978027,3.2046224 10.9836589,3.14327799 C10.9735677,3.09943034 10.9590169,3.06433919 10.9351563,3.02617187 C10.9017904,2.97280273 10.861377,2.92561849 10.7177572,2.7819987 L9.19716797,1.26139323 C9.05354818,1.11777344 9.00636393,1.07736003 8.95299479,1.04397786 C8.91484375,1.02013346 8.8797526,1.00558268 8.83588867,0.99547526 C8.77454427,0.981347656 8.71261393,0.976546224 8.50950521,0.976546224 L1.74018555,0.976546224 C1.41700846,0.976546224 1.31858724,0.995556641 1.21814779,1.04926758 L1.21814779,1.04928385 Z M1.74018555,0 L8.50950521,0 C8.78007813,0 8.90771484,0.00989583333 9.05522461,0.0438802083 C9.20473633,0.0783365885 9.34070638,0.134667969 9.47080078,0.216015625 C9.59913737,0.296289062 9.69638672,0.379541016 9.88771159,0.570865885 L11.4083008,2.09145508 C11.5996257,2.28279622 11.6828776,2.3800293 11.763151,2.50836589 C11.8444987,2.63846029 11.9008301,2.77443034 11.9352865,2.92394206 C11.9692708,3.07145182 11.9791667,3.19908854 11.9791667,3.46967773 L11.9791667,10.2389811 C11.9791667,10.7095866 11.9307454,10.9603027 11.7910156,11.2215658 C11.6604004,11.465804 11.4658203,11.6604004 11.2215658,11.7910156 C10.9603027,11.9307454 10.7095866,11.9791667 10.2389811,11.9791667 L1.74018555,11.9791667 C1.26958008,11.9791667 1.01886393,11.9307454 0.757600911,11.7910156 C0.51336263,11.6604004 0.318766276,11.4658203 0.188151042,11.2215658 C0.048421224,10.9603027 0,10.7095866 0,10.2389811 L0,1.74018555 C0,1.26958008 0.048421224,1.01886393 0.188151042,0.757600911 C0.318766276,0.51336263 0.513346354,0.318766276 0.757600911,0.188151042 C1.01886393,0.048421224 1.26958008,0 1.74018555,0 Z M8.62630208,0.968017578 L9.60286458,0.968017578 L9.60286458,4.21811523 C9.60286458,4.71153971 9.54013672,4.98035482 9.36310221,5.25426432 C9.20452474,5.49960938 8.97517904,5.68938802 8.6933431,5.81411133 C8.3980306,5.94482422 8.11778971,5.98958333 7.56385091,5.98958333 L4.41531576,5.98958333 C3.86137695,5.98958333 3.58113607,5.94480794 3.28582357,5.8141276 C3.00398763,5.68938802 2.77464193,5.49960938 2.61606445,5.25426432 C2.43902995,4.98033854 2.37630208,4.71153971 2.37630208,4.21811523 L2.37630208,0.974609375 L3.35286458,0.974609375 L3.35286458,4.21809896 C3.35286458,4.40128581 3.36311849,4.52083333 3.38134766,4.5988444 C3.39274089,4.64773763 3.40587565,4.67719727 3.43624674,4.72416992 C3.48852539,4.80507812 3.56860352,4.87133789 3.68103841,4.92109375 C3.83378906,4.98868815 3.98601888,5.01302083 4.41531576,5.01302083 L7.56385091,5.01302083 C7.99314779,5.01302083 8.14539388,4.98868815 8.29814453,4.92109375 C8.41056315,4.87133789 8.49064128,4.80507812 8.5429362,4.7241862 C8.57329102,4.67719727 8.58642578,4.64773763 8.59783529,4.59886068 C8.6160319,4.52083333 8.62630208,4.40128581 8.62630208,4.21811523 L8.62630208,0.968017578 Z" id="形状" fill="#000000" fill-rule="nonzero"></path>
                        </g>
                    </g>
                </g>
            </g>
        </g>
    </g>
</svg>