<?xml version="1.0" encoding="UTF-8"?>
<svg width="14px" height="16px" viewBox="0 0 14 16" version="1.1" xmlns="http://www.w3.org/2000/svg" xmlns:xlink="http://www.w3.org/1999/xlink">
    <title>icon/预测02</title>
    <defs>
        <filter id="filter-1">
            <feColorMatrix in="SourceGraphic" type="matrix" values="0 0 0 0 1.000000 0 0 0 0 1.000000 0 0 0 0 1.000000 0 0 0 1.000000 0"></feColorMatrix>
        </filter>
    </defs>
    <g id="深色部分" stroke="none" stroke-width="1" fill="none" fill-rule="evenodd">
        <g id="动态研究-首页" transform="translate(-309.000000, -400.000000)">
            <g id="编组" transform="translate(308.000000, 400.000000)" filter="url(#filter-1)">
                <g transform="translate(1.000000, 0.000000)">
                    <path d="M13.4618154,3.7125 C13.1378246,3.7125 12.9236308,3.92678571 12.9236308,4.24642857 L12.9236308,11.5125 L6.89200309,14.825 L1.07636925,11.5125 L1.07636925,4.56785714 L7,1.04107143 L8.29236308,1.89642857 C8.5083569,2.00357143 8.8305477,2.11071429 9.04654153,1.78928571 C9.26253536,1.46785714 9.04654153,1.14821429 8.8305477,1.04107143 L7.21599383,0.0803571429 C7,-0.0267857143 6.89380303,-0.0267857143 6.67780921,0.0803571429 L0.215993829,3.92678571 C0.107996914,4.03392857 0,4.14107143 0,4.35357143 L0,11.8321429 C0,11.9392857 0.107996914,12.1535714 0.323990743,12.2589286 L6.67600926,15.8928571 C6.67600926,15.8928571 6.78400617,16 6.89200309,16 C7,16 7.10799691,15.8928571 7.10799691,15.8928571 L13.6778092,12.1535714 C13.893803,12.0464286 14,11.9392857 14,11.7267857 L14,4.24642857 C14,3.92678571 13.7858061,3.7125 13.4618154,3.7125 Z" id="路径" fill="#000000" fill-rule="nonzero"></path>
                    <path d="M8.0619137,8.58257625 L8.0619137,11.4664179 C8.0619137,11.7876379 8.28705441,12 8.62288931,12 C8.96060038,12 9.18386492,11.7858533 9.18386492,11.4664179 L9.18386492,8.58257625 C9.18386492,8.26135626 8.9587242,8.04899416 8.62288931,8.04899416 C8.39774859,8.04899416 8.0619137,8.26135626 8.0619137,8.58257625 Z M10.7560976,2.06894873 L11.1894934,2.06894873 L7.50093809,5.1651525 L5.81801126,4.09798832 C5.59287054,3.99091499 5.369606,3.99091499 5.14446529,4.09798832 L2.3358349,6.01995457 C2.11069418,6.23410123 1.99812383,6.55353666 2.22326454,6.76768332 C2.3358349,6.87475665 2.44840525,6.98182998 2.67166979,6.98182998 C2.78424015,6.98182998 2.89681051,6.98182998 3.00938086,6.87475665 L5.47842402,5.27401038 L7.16135084,6.34117456 C7.38649156,6.55532122 7.72232645,6.44824789 7.94746717,6.34117456 L11.8780488,2.90590526 L11.8780488,3.13611291 C11.8780488,3.45554835 12.1031895,3.669695 12.4390244,3.669695 C12.7767355,3.669695 13,3.45554835 13,3.02903958 L13,1.53358209 C13,1.2123621 12.7748593,1 12.4390244,1 L10.7560976,1 C10.5309568,1 10.195122,1.21414666 10.195122,1.53358209 C10.195122,1.85480208 10.5309568,2.06894873 10.7560976,2.06894873 L10.7560976,2.06894873 Z M11.5403377,5.69873459 C11.2045028,5.69873459 10.9793621,5.91288125 10.9793621,6.23231668 L10.9793621,10.5027579 C10.9793621,10.8239779 11.2045028,11.03634 11.5403377,11.03634 C11.8780488,11.03634 12.1013133,10.8221934 12.1013133,10.5027579 L12.1013133,6.23410123 C12.1031895,5.91288125 11.8780488,5.69873459 11.5403377,5.69873459 Z M2.56097561,7.8348475 C2.22326454,7.8348475 2,8.04899416 2,8.36842959 L2,9.43737833 C2,9.75859831 2.22514071,9.97096042 2.56097561,9.97096042 C2.89868668,9.97096042 3.12195122,9.75681376 3.12195122,9.43737833 L3.12195122,8.37021415 C3.12195122,8.04899416 2.89681051,7.8348475 2.56097561,7.8348475 Z M5.03001876,7.62070084 L5.03001876,11.0381246 C5.03001876,11.3593446 5.25515947,11.5717067 5.59099437,11.5717067 C5.92682927,11.5717067 6.15196998,11.35756 6.15196998,11.0381246 L6.15196998,7.62070084 C6.15196998,7.29948086 5.92682927,7.08711875 5.59099437,7.08711875 C5.25515947,7.08711875 5.03001876,7.30126541 5.03001876,7.62070084 Z" id="形状" fill="#000000" fill-rule="nonzero"></path>
                </g>
            </g>
        </g>
    </g>
</svg>