<?xml version="1.0" encoding="UTF-8"?>
<svg width="14px" height="14px" viewBox="0 0 14 14" version="1.1" xmlns="http://www.w3.org/2000/svg" xmlns:xlink="http://www.w3.org/1999/xlink">
    <title>icon/保存</title>
    <defs>
        <filter id="filter-1">
            <feColorMatrix in="SourceGraphic" type="matrix" values="0 0 0 0 1.000000 0 0 0 0 1.000000 0 0 0 0 1.000000 0 0 0 1.000000 0"></feColorMatrix>
        </filter>
    </defs>
    <g id="深色部分" stroke="none" stroke-width="1" fill="none" fill-rule="evenodd">
        <g id="动态研究-首页" transform="translate(-1396.000000, -297.000000)">
            <g id="编组" transform="translate(1396.989965, 297.000000)" filter="url(#filter-1)">
                <g>
                    <path d="M4.13636364,0 L4.13636364,1.27225 L8.86363636,1.27225 L8.86363636,0 L10.0454545,0 L10.0454545,1.27225 L11.8181818,1.27225 C12.470882,1.27225 13,1.79458446 13,2.43891667 L13,12.8333333 C13,13.4776655 12.470882,14 11.8181818,14 L1.18181818,14 C0.529118023,14 0,13.4776655 0,12.8333333 L0,2.4395 C0,1.79516779 0.529118023,1.27283333 1.18181818,1.27283333 L2.95454545,1.27225 L2.95454545,0 L4.13636364,0 Z M1.18181818,5.83333333 L1.18181818,12.8333333 L11.8181818,12.8333333 L11.8181818,5.83333333 L1.18181818,5.83333333 Z M10.0454545,9.91666667 L10.0454545,11.0833333 L2.95454545,11.0833333 L2.95454545,9.91666667 L10.0454545,9.91666667 Z M10.0454545,7.58333333 L10.0454545,8.75 L2.95454545,8.75 L2.95454545,7.58333333 L10.0454545,7.58333333 Z M2.95454545,2.33275 L1.18181818,2.33333333 L1.18181818,4.66666667 L11.8181818,4.66666667 L11.8181818,2.33333333 L10.0454545,2.33275 L10.0454545,3.5 L8.86363636,3.5 L8.86363636,2.33275 L4.13636364,2.33275 L4.13636364,3.5 L2.95454545,3.5 L2.95454545,2.33275 Z" id="形状" fill="#000000" fill-rule="nonzero"></path>
                </g>
            </g>
        </g>
    </g>
</svg>