<?xml version="1.0" encoding="UTF-8"?>
<svg width="16px" height="16px" viewBox="0 0 16 16" version="1.1" xmlns="http://www.w3.org/2000/svg" xmlns:xlink="http://www.w3.org/1999/xlink">
    <title>icon/逻辑回归</title>
    <defs>
        <filter id="filter-1">
            <feColorMatrix in="SourceGraphic" type="matrix" values="0 0 0 0 1.000000 0 0 0 0 1.000000 0 0 0 0 1.000000 0 0 0 1.000000 0"></feColorMatrix>
        </filter>
    </defs>
    <g id="深色部分" stroke="none" stroke-width="1" fill="none" fill-rule="evenodd">
        <g id="动态研究-首页" transform="translate(-308.000000, -272.000000)">
            <g id="编组" transform="translate(308.000000, 272.000000)" filter="url(#filter-1)">
                <g>
                    <polygon id="Fill-1" fill="#353535" points="0 -0.000114285714 0 15.9998857 15.999619 15.9998857 15.999619 14.8574095 1.14285714 14.8574095 1.14285714 -0.000114285714"></polygon>
                    <g transform="translate(2.285714, 2.285714)">
                        <path d="M2.97165714,9.3727619 C3.49927619,9.46380952 4.00022857,9.11028571 4.09127619,8.58304762 C4.18270476,8.05542857 3.8288,7.55447619 3.3015619,7.46304762 C2.77394286,7.372 2.27299048,7.72590476 2.18194286,8.25352381 C2.09051429,8.78038095 2.44441905,9.28209524 2.97165714,9.3727619" id="Fill-2" fill="#0F0F0F"></path>
                        <path d="M8.72460952,5.7232 C9.25184762,5.81424762 9.75318095,5.46072381 9.84384762,4.93348571 C9.93527619,4.40586667 9.58137143,3.90491429 9.05413333,3.81348571 C8.52651429,3.7224381 8.0255619,4.07634286 7.93451429,4.6039619 C7.84346667,5.13081905 8.19699048,5.63253333 8.72460952,5.7232" id="Fill-4" fill="#0F0F0F"></path>
                        <path d="M4.79977143,1.19009524 C5.10415238,1.24266667 5.39405714,1.03847619 5.44624762,0.733714286 C5.49881905,0.428952381 5.29462857,0.139428571 4.98986667,0.0868571429 C4.68548571,0.0342857143 4.39558095,0.23847619 4.34339048,0.543238095 C4.29081905,0.848 4.49500952,1.13714286 4.79977143,1.19009524" id="Fill-6" fill="#0F0F0F"></path>
                        <path d="M11.9270095,3.15512381 C12.3312,3.2248381 12.7152,2.95398095 12.7849143,2.54940952 C12.8550095,2.1456 12.5837714,1.76121905 12.179581,1.69150476 C11.7753905,1.62179048 11.3913905,1.89302857 11.3212952,2.2968381 C11.2519619,2.70102857 11.5224381,3.08502857 11.9270095,3.15512381" id="Fill-8" fill="#0F0F0F"></path>
                        <path d="M8.12419048,11.5621333 C8.51238095,11.629181 8.88114286,11.3689905 8.94819048,10.981181 C9.0152381,10.5929905 8.75466667,10.2238476 8.36685714,10.157181 C7.97866667,10.0901333 7.60952381,10.3499429 7.54285714,10.7385143 C7.47580952,11.1263238 7.736,11.4950857 8.12419048,11.5621333" id="Fill-10" fill="#0F0F0F"></path>
                        <path d="M0.0196190476,5.75744762 C0.0196190476,5.75744762 1.25542857,3.35820952 3.87219048,3.35820952 C6.48933333,3.35820952 5.39904762,8.41801905 8.45238095,8.41801905 C11.5053333,8.41801905 13.1049524,5.88811429 13.1049524,5.88811429" id="Stroke-12" stroke="#353535" stroke-width="1.14285714" stroke-linecap="round"></path>
                    </g>
                </g>
            </g>
        </g>
    </g>
</svg>