<?xml version="1.0" encoding="UTF-8"?>
<svg width="16px" height="16px" viewBox="0 0 16 16" version="1.1" xmlns="http://www.w3.org/2000/svg" xmlns:xlink="http://www.w3.org/1999/xlink">
    <title>icon/OLS回归</title>
    <defs>
        <filter id="filter-1">
            <feColorMatrix in="SourceGraphic" type="matrix" values="0 0 0 0 1.000000 0 0 0 0 1.000000 0 0 0 0 1.000000 0 0 0 1.000000 0"></feColorMatrix>
        </filter>
    </defs>
    <g id="深色部分" stroke="none" stroke-width="1" fill="none" fill-rule="evenodd">
        <g id="动态研究-首页" transform="translate(-388.000000, -208.000000)">
            <g id="编组" transform="translate(388.000000, 208.000000)" filter="url(#filter-1)">
                <g>
                    <polygon id="Fill-1" fill="#353535" points="0 -0.000114285714 0 15.9998857 16 15.9998857 16 14.8574095 1.1432381 14.8574095 1.1432381 -0.000114285714"></polygon>
                    <polygon id="Fill-2" fill="#353535" points="0 15.1792 0.820952381 16.0001524 14.1824762 2.63862857 13.3619048 1.81767619"></polygon>
                    <g transform="translate(2.285714, 3.047619)" fill="#0F0F0F">
                        <path d="M9.68540952,6.46205714 C10.2126476,6.55310476 10.7136,6.19958095 10.8046476,5.6719619 C10.8960762,5.14472381 10.5421714,4.64339048 10.0149333,4.55234286 C9.48731429,4.46129524 8.9863619,4.8152 8.89531429,5.3424381 C8.80426667,5.86967619 9.15779048,6.37100952 9.68540952,6.46205714" id="Fill-3"></path>
                        <path d="M6.6832,8.92 C6.6832,8.38514286 6.24929524,7.9512381 5.7144381,7.9512381 C5.1792,7.9512381 4.74529524,8.38514286 4.74529524,8.92 C4.74529524,9.4552381 5.1792,9.88914286 5.7144381,9.88914286 C6.24929524,9.88914286 6.6832,9.4552381 6.6832,8.92" id="Fill-5"></path>
                        <path d="M2.17611429,5.50708571 C2.17611429,4.97222857 1.74220952,4.53832381 1.20697143,4.53832381 C0.672114286,4.53832381 0.238209524,4.97222857 0.238209524,5.50708571 C0.238209524,6.04232381 0.672114286,6.47622857 1.20697143,6.47622857 C1.74220952,6.47622857 2.17611429,6.04232381 2.17611429,5.50708571" id="Fill-7"></path>
                        <path d="M5.7144381,1.05580952 C5.7144381,0.520952381 5.28015238,0.087047619 4.74529524,0.087047619 C4.2104381,0.087047619 3.77615238,0.520952381 3.77615238,1.05580952 C3.77615238,1.59104762 4.2104381,2.02495238 4.74529524,2.02495238 C5.28015238,2.02495238 5.7144381,1.59104762 5.7144381,1.05580952" id="Fill-9"></path>
                    </g>
                </g>
            </g>
        </g>
    </g>
</svg>