<?xml version="1.0" encoding="UTF-8"?>
<svg width="16px" height="16px" viewBox="0 0 16 16" version="1.1" xmlns="http://www.w3.org/2000/svg" xmlns:xlink="http://www.w3.org/1999/xlink">
    <title>icon/逐步回归</title>
    <defs>
        <filter id="filter-1">
            <feColorMatrix in="SourceGraphic" type="matrix" values="0 0 0 0 1.000000 0 0 0 0 1.000000 0 0 0 0 1.000000 0 0 0 1.000000 0"></feColorMatrix>
        </filter>
    </defs>
    <g id="深色部分" stroke="none" stroke-width="1" fill="none" fill-rule="evenodd">
        <g id="动态研究-首页" transform="translate(-348.000000, -208.000000)">
            <g id="编组" transform="translate(348.000000, 208.000000)" filter="url(#filter-1)">
                <g>
                    <polygon id="Fill-1" fill="#353535" points="0 -0.000114285714 0 15.9998857 16 15.9998857 16 14.8574095 1.14285714 14.8574095 1.14285714 -0.000114285714"></polygon>
                    <g transform="translate(2.285714, 1.523810)" fill="#353535">
                        <path d="M11.1553524,11.0152381 C10.5576381,11.0152381 7.67344762,10.8742857 6.21973333,8.23085714 C5.18620952,6.35161905 1.46887619,6.19085714 0.122590476,6.28419048 L0.0403047619,5.14438095 C0.268114286,5.12761905 5.62354286,4.77485714 7.22125714,7.68038095 C8.47535238,9.96038095 11.1862095,9.87847619 11.2121143,9.87161905 L11.2608762,11.0137143 C11.2486857,11.0140952 11.2121143,11.0152381 11.1553524,11.0152381" id="Fill-2"></path>
                        <polygon id="Fill-4" points="11.2364571 8.70944762 13.3960762 10.4439238 11.2364571 12.178019"></polygon>
                        <path d="M4.46171429,5.17558095 L3.46285714,4.62053333 C6.04838095,-0.0331809524 11.9615238,1.24415238 12.0205714,1.25710476 L11.768381,2.37177143 C11.7558095,2.36910476 10.439619,2.08186667 8.87428571,2.30205714 C6.8472381,2.58700952 5.36266667,3.55386667 4.46171429,5.17558095" id="Fill-6"></path>
                        <polygon id="Fill-8" points="11.2364571 3.54872381 13.3960762 1.81424762 11.2364571 0.080152381"></polygon>
                    </g>
                </g>
            </g>
        </g>
    </g>
</svg>