<?xml version="1.0" encoding="UTF-8"?>
<svg width="12px" height="10px" viewBox="0 0 12 10" version="1.1" xmlns="http://www.w3.org/2000/svg" xmlns:xlink="http://www.w3.org/1999/xlink">
    <title>组_122</title>
    <g id="深色部分" stroke="none" stroke-width="1" fill="none" fill-rule="evenodd">
        <g id="动态研究-首页" transform="translate(-53.000000, -304.000000)">
            <g id="组_122" transform="translate(53.000000, 304.000000)">
                <path d="M4.711,9.464 L1.35,9.464 L0.418,8.685 L0.418,2.392 C0.407717865,2.04371572 0.541208986,1.7065472 0.787117103,1.45969328 C1.03302522,1.21283937 1.36967882,1.07805492 1.718,1.087 C3.018,1.106 3.894,1.087 3.894,1.087 C4.14870243,1.06852516 4.3990497,1.1604742 4.58124409,1.33941511 C4.76343847,1.51835603 4.85988299,1.76700606 4.846,2.022 C4.79086385,2.34539586 4.89785679,2.67526741 5.13231268,2.90473487 C5.36676857,3.13420233 5.6988645,3.23407735 6.021,3.172 L10.674,3.172 L11.315,3.366 L11.704,3.966 L11.704,6.051 L11.604,8.798 L10.73,9.46 L4.711,9.46 L4.711,9.464 Z" id="路径_99-22" fill="#4F4E55"></path>
                <g id="组_116-22" fill="#FFFFFF">
                    <path d="M11.291,3.017 L11.291,2.662 C11.2882534,1.6833868 10.4956132,0.890746615 9.517,0.888 L5.617,0.888 C5.28979671,0.338782161 4.6982961,0.0016495919 4.059,0 L1.773,0 C0.794777343,0.00329540389 0.00274382593,0.79577564 0,1.774 L0,8.039 C0.00274661515,9.0176132 0.795386797,9.81025338 1.774,9.813 L10.227,9.813 C11.2052227,9.8097046 11.9972562,9.01722436 12,8.039 L12,4.439 C11.9950125,3.88172501 11.7334459,3.35785388 11.291,3.019 L11.291,3.019 L11.291,3.017 Z M11.424,8.202 C11.4229,8.71351162 11.0085116,9.12789997 10.497,9.129 L1.687,9.129 C1.17548838,9.12789997 0.761100029,8.71351162 0.76,8.202 L0.76,1.611 C0.800045347,1.11656777 1.19256777,0.724045347 1.687,0.684 L4.074,0.684 C4.48055882,0.676470971 4.84166553,0.942484881 4.955,1.333 L5.233,2.168 C5.47146217,2.94144126 6.18663299,3.46879354 6.996,3.468 L10.496,3.468 C11.0072843,3.46964666 11.4213533,3.88371566 11.423,4.395 L11.423,8.2 L11.424,8.202 Z M9.624,1.637 C10.1814747,1.70245544 10.5854243,2.19996521 10.535,2.759 L6.848,2.759 C6.41287219,2.72828942 6.05515633,2.40403198 5.982,1.974 L5.891,1.637 L9.628,1.637 L9.624,1.637 Z" id="路径_100-22"></path>
                </g>
            </g>
        </g>
    </g>
</svg>