<?xml version="1.0" encoding="UTF-8"?>
<svg width="12px" height="10px" viewBox="0 0 12 10" version="1.1" xmlns="http://www.w3.org/2000/svg" xmlns:xlink="http://www.w3.org/1999/xlink">
    <title>组_114</title>
    <g id="深色部分" stroke="none" stroke-width="1" fill="none" fill-rule="evenodd">
        <g id="动态研究-首页" transform="translate(-33.000000, -400.000000)">
            <g id="组_114" transform="translate(33.000000, 400.000000)">
                <path d="M4.742,9.388 L1.425,9.388 L0.505,8.637 L0.505,2.572 C0.497507023,2.23128672 0.631365843,1.9026668 0.874794888,1.66416317 C1.11822393,1.42565954 1.44951103,1.29854505 1.79,1.313 C3.074,1.332 3.937,1.313 3.937,1.313 C4.18451102,1.29409119 4.42836808,1.38144409 4.60757692,1.55320975 C4.78678575,1.72497541 4.88439851,1.96490987 4.876,2.213 C4.82826715,2.52849651 4.9371229,2.84747812 5.16776897,3.06797497 C5.39841504,3.28847182 5.72196925,3.38287263 6.035,3.321 L10.627,3.321 L11.26,3.509 L11.644,4.091 L11.644,6.1 L11.544,8.747 L10.681,9.386 L4.742,9.386 L4.742,9.388 Z" id="路径_97" fill="#2C89CC"></path>
                <g id="组_111" fill="#FFFFFF">
                    <path d="M11.291,3.017 L11.291,2.662 C11.2882534,1.6833868 10.4956132,0.890746615 9.517,0.888 L5.617,0.888 C5.28979671,0.338782161 4.6982961,0.0016495919 4.059,5.68434189e-14 L1.774,5.68434189e-14 C0.795386797,0.00274661515 0.00274661515,0.795386797 0,1.774 L0,8.039 C0.00274661515,9.0176132 0.795386797,9.81025338 1.774,9.813 L10.227,9.813 C11.2052227,9.8097046 11.9972562,9.01722436 12,8.039 L12,4.439 C11.9948625,3.88176109 11.7333269,3.35795207 11.291,3.019 L11.291,3.019 L11.291,3.017 Z M11.424,8.202 C11.4223533,8.71328434 11.0082843,9.12735334 10.497,9.129 L1.687,9.129 C1.17571566,9.12735334 0.761646661,8.71328434 0.76,8.202 L0.76,1.611 C0.800045347,1.11656777 1.19256777,0.724045347 1.687,0.684 L4.074,0.684 C4.48055882,0.676470971 4.84166553,0.942484881 4.955,1.333 L5.233,2.168 C5.47146217,2.94144126 6.18663299,3.46879354 6.996,3.468 L10.496,3.468 C11.0072843,3.46964666 11.4213533,3.88371566 11.423,4.395 L11.423,8.2 L11.424,8.202 Z M9.624,1.637 C10.1814747,1.70245544 10.5854243,2.19996521 10.535,2.759 L6.848,2.759 C6.41287219,2.72828942 6.05515633,2.40403198 5.982,1.974 L5.891,1.637 L9.628,1.637 L9.624,1.637 Z" id="路径_98"></path>
                </g>
            </g>
        </g>
    </g>
</svg>